# xmcd CD database file
#
# Track frame offsets:
#	150
#	12868
#	24487
#	36336
#	50932
#	62998
#	77235
#	90698
#	111208
#	127642
#	139186
#	150563
#	162617
#	176878
#	189467
#	206239
#	221518
#	236474
#	251122
#	267548
#
# Disc length: 3738 seconds
#
# Revision: 2
# Processed by: cddbd v1.5.1PL0 Copyright (c) Steve Scherf et al.
# Submitted via: CDex 1.51
#
DISCID=2a0e9814
DTITLE=Varios - Sertanejo Bom de Dança - 2000 (Niv@s)
DYEAR=2000
DGENRE=Country
TTITLE0=Rio Negro e Solimões - Bate o Pé
TTITLE1=Marcos e Fernando - Socorro
TTITLE2=Gian e Giovani - Hey Hey Trem Bão
TTITLE3=Rio Negro e Solimões - Uai Uai
TTITLE4=Ludy e Junior - Agarra Agarra
TTITLE5=Milionário e José Rico - Denguinho
TTITLE6=Cesar e Paulinho - Ela é Doida
TTITLE7=Daniel - A Gata do Milênio
TTITLE8=Rio Negro e Solimões - Casa Cheia
TTITLE9=Elvis e Ricardo - Vai e Vem
TTITLE10=Luis Fernando e Liomar - Aonde Tem Festa
TTITLE11=Gilberto e Gilmar - Só Tô O Pó
TTITLE12=Henrique e Hernane - Levanta Esse Deitado
TTITLE13=Gian e Giovani - Gospe Grosso
TTITLE14=Rio Negro e Solimões - Saudade Aperta
TTITLE15=Daniel - Só Depois do Casamento
TTITLE16=Gian e Giovani - Gol do Coração
TTITLE17=Rio Negro e Solimões - Na Virada do 2000
TTITLE18=Marcos e Fernando - O Pau Vai Cair A Folha
TTITLE19=Rio Negro e Solimões - Brete da Solidão
EXTD=YEAR: 2000
EXTT0=
EXTT1=
EXTT2=
EXTT3=
EXTT4=
EXTT5=
EXTT6=
EXTT7=
EXTT8=
EXTT9=
EXTT10=
EXTT11=
EXTT12=
EXTT13=
EXTT14=
EXTT15=
EXTT16=
EXTT17=
EXTT18=
EXTT19=
PLAYORDER=
